<svg width="100" height="100" viewBox="0 0 100 100" fill="none" xmlns="http://www.w3.org/2000/svg">
  <!-- Background Shape -->
  <circle cx="50" cy="50" r="50" fill="#000000" />
  
  <!-- Stylized Letter C -->
  <path d="M63 30C58.5817 30 54.6085 32.5817 52.6085 36.5C51.6085 38.5 51 40.6957 51 43C51 45.3043 51.6085 47.5 52.6085 49.5C54.6085 53.4183 58.5817 56 63 56" stroke="white" stroke-width="8" stroke-linecap="round" />
  
  <!-- Traditional Vietnamese Decoration Element - Simplified Lotus/Fan -->
  <path d="M27 40C32 33 38 30 42 35C46 40 39 43 34 40" stroke="white" stroke-width="3" stroke-linecap="round" />
  <path d="M27 60C32 67 38 70 42 65C46 60 39 57 34 60" stroke="white" stroke-width="3" stroke-linecap="round" />
  
  <!-- Central Element - Stylized Vietnamese Pattern -->
  <path d="M50 65V80" stroke="white" stroke-width="4" stroke-linecap="round" />
  <circle cx="50" cy="70" r="2" fill="white" />
  <circle cx="50" cy="77" r="2" fill="white" />
  
  <!-- Horizontal Line -->
  <path d="M30 65H70" stroke="white" stroke-width="4" stroke-linecap="round" />
</svg> 